<svg xmlns="http://www.w3.org/2000/svg">
  <path id="retweet" d="M31 12.5h-3.2c-.8 0-1.5.4-1.9 1.1-.4.7-.3 1.5.2 2.2l6.4 8.3c.4.5 1 .8 1.7.8s1.3-.3 1.7-.8l6.4-8.3c.5-.6.6-1.5.2-2.2-.4-.7-1.1-1.1-1.9-1.1h-3.2V3.1C37.4 1.4 36 0 34.2 0H21.4c-1.8 0-3.2 1.4-3.2 3.1 0 1.7 1.4 3.1 3.2 3.1H31v6.3zm-19.3 0H15c1.2 0 2.1-.9 2.1-2.1 0-.6-.2-1.1-.6-1.5L10.2.8c-.8-1-2.6-1-3.4 0L.4 9.1c-.5.6-.6 1.5-.2 2.2.4.7 1.1 1.2 1.9 1.2h3.2v9.3c0 1.7 1.4 3.1 3.2 3.1h12.8c1.8 0 3.2-1.4 3.2-3.1s-1.4-3.1-3.2-3.1h-9.6v-6.2z"/>
  <path id="fave" d="M22.6 27.5c-.4 0-.9-.1-1.3-.4l-6.7-4.9-6.7 4.9c-.7.5-1.7.6-2.5 0-.7-.5-1-1.5-.7-2.3l2.8-7.7L1 13.2c-.8-.5-1.2-1.4-.9-2.3.3-.9 1.1-1.5 2-1.5h8l2.5-8c.3-.9 1.1-1.4 2-1.4.9 0 1.7.6 2 1.4l2.5 8h8c.9 0 1.8.6 2 1.5.3.9-.1 1.8-.9 2.3l-6.5 3.9 2.7 7.5c.1.3.2.6.2.9.1 1.1-.9 2-2 2"/>
</svg>