<svg xmlns="http://www.w3.org/2000/svg" viewBox="0 0 42.7 24.9"><path d="M31 12.5h-3.2c-.8 0-1.5.4-1.9 1.1-.4.7-.3 1.5.2 2.2l6.4 8.3c.4.5 1 .8 1.7.8s1.3-.3 1.7-.8l6.4-8.3c.5-.6.6-1.5.2-2.2-.4-.7-1.1-1.1-1.9-1.1h-3.2V3.1C37.4 1.4 36 0 34.2 0H21.4c-1.8 0-3.2 1.4-3.2 3.1 0 1.7 1.4 3.1 3.2 3.1H31v6.3zm-19.3 0H15c1.2 0 2.1-.9 2.1-2.1 0-.6-.2-1.1-.6-1.5L10.2.8c-.8-1-2.6-1-3.4 0L.4 9.1c-.5.6-.6 1.5-.2 2.2.4.7 1.1 1.2 1.9 1.2h3.2v9.3c0 1.7 1.4 3.1 3.2 3.1h12.8c1.8 0 3.2-1.4 3.2-3.1s-1.4-3.1-3.2-3.1h-9.6v-6.2z"/></svg>